<svg height="512" viewBox="0 0 512 512" width="512" xmlns="http://www.w3.org/2000/svg"><g id="Out_line" data-name="Out line"><path d="m372.0293 300.87793-60.59571-18.936-4.11328-41.13183a43.45057 43.45057 0 0 0 24.02442 7.1899h3.042a43.4814 43.4814 0 0 0 41.30273-29.76953l.9541-2.86524a43.29755 43.29755 0 0 0 -10.51562-44.55175l-11.896-11.896a100.479 100.479 0 0 0 5.08643-51.66846l-1.33887-8.03613a100.42762 100.42762 0 0 0 -121.6445-81.3457l-5.335 1.23047a100.92086 100.92086 0 0 0 -75.45508 76.07134l-19.35449 87.0957a8.00016 8.00016 0 0 0 7.80957 9.7353h17.583l14.60742 65.73535a7.99849 7.99849 0 0 0 9.75 6.02539l36.322-9.08056-5.51977 35.8789-59.99756 27.99854a152.6325 152.6325 0 0 0 -79.92188 89.67285l-28.41305 85.23926 15.17968 5.06054 28.41309-85.24027a136.571 136.571 0 0 1 71.50781-80.23438l17.29346-8.07031-26.88232 24.81449a113.93231 113.93231 0 0 0 -24.627 134.67676l7.54981 15.10059 14.31054-7.1543-7.5498-15.10156a97.93494 97.93494 0 0 1 21.168-115.76367l62.68657-57.86426 62.89356-6.28906-6.57618 13.15234a416.78108 416.78108 0 0 0 -43.77738 185.44336h16a400.69772 400.69772 0 0 1 42.08789-178.28711l10.02344-20.04689 59.14551 18.48339a112.75532 112.75532 0 0 1 74.999 76.86524l30.05176 105.18262 15.38476-4.39454-30.05174-105.18357a128.71048 128.71048 0 0 0 -85.61132-87.74121zm-17.21582-118.75a27.38149 27.38149 0 0 1 6.65136 28.17773l-.95507 2.86524a27.50044 27.50044 0 0 1 -26.12305 18.8291h-3.042a27.42044 27.42044 0 0 1 -26.459-19.93945 66.4084 66.4084 0 0 0 20.72852-12.04981 99.76941 99.76941 0 0 0 21.353-25.729zm-120.2168-147.44043 5.335-1.23047a84.42811 84.42811 0 0 1 102.26465 68.38574l1.33887 8.03614a84.8896 84.8896 0 0 1 -28.333 77.98339 50.44707 50.44707 0 0 1 -26.9353 11.78174l28.67358-38.23291a26.30381 26.30381 0 0 0 -2.43066-34.21582 26.17915 26.17915 0 0 0 -37.01954 0l-13.98144 13.98145-81.89751-68.24707a84.8304 84.8304 0 0 1 52.98535-38.24219zm-58.78711 147.57715a8 8 0 0 0 -7.80957-6.26465h-14.02734l17.1914-77.36035a83.34558 83.34558 0 0 1 3.22681-10.90088l84.488 70.40674a7.99936 7.99936 0 0 0 10.77832-.48828l19.14746-19.14746a10.17606 10.17606 0 0 1 15.33593 13.30175l-60.83691 81.11621-53.27637 13.31934zm63.28931 68.20654 10.84155-2.71045a8.00083 8.00083 0 0 0 4.46-2.96094l21.59957-28.7998h6.38965c2.12475 0 4.23926-.11011 6.33935-.312l6.51514 65.14795-61.76758 6.17676z"/><path d="m352.315 411.773 18.189 39.409-17.858 41.667 14.708 6.302 12.176-28.412 13.206 28.614 14.528-6.706-40.421-87.579z"/><path d="m200 136h-16a8 8 0 0 0 0 16h16a8 8 0 0 0 0-16z"/></g></svg>